<mxfile host="app.diagrams.net" modified="2021-03-17T19:49:53.623Z" agent="5.0 (Windows NT 10.0; Win64; x64) AppleWebKit/537.36 (KHTML, like Gecko) Chrome/89.0.4389.82 Safari/537.36" etag="MeRE7v13nBeTKSq1TzyO" version="14.4.3" type="github">
  <diagram id="2nJ1aKXvHdM1KtQyJDZV" name="Página-1">
    <mxGraphModel dx="1422" dy="705" grid="1" gridSize="10" guides="1" tooltips="1" connect="1" arrows="1" fold="1" page="1" pageScale="1" pageWidth="1169" pageHeight="827" math="0" shadow="0">
      <root>
        <mxCell id="0" />
        <mxCell id="1" parent="0" />
        <mxCell id="DdHKsm9eGKhI5jd7U26N-7" value="&lt;font style=&quot;font-size: 14px&quot;&gt;COMPRADOR&lt;/font&gt;" style="shape=umlActor;verticalLabelPosition=bottom;verticalAlign=top;html=1;outlineConnect=0;" vertex="1" parent="1">
          <mxGeometry x="50" y="340" width="30" height="60" as="geometry" />
        </mxCell>
        <mxCell id="DdHKsm9eGKhI5jd7U26N-19" value="Finalizar compra&lt;br&gt;&lt;br&gt;&lt;font style=&quot;font-size: 11px&quot;&gt;&lt;i&gt;extends&lt;/i&gt;&lt;/font&gt;&lt;br&gt;descuento" style="ellipse;whiteSpace=wrap;html=1;direction=east;" vertex="1" parent="1">
          <mxGeometry x="150" y="330" width="120" height="80" as="geometry" />
        </mxCell>
        <mxCell id="DdHKsm9eGKhI5jd7U26N-20" value="Eliminar del carrito" style="ellipse;whiteSpace=wrap;html=1;direction=east;" vertex="1" parent="1">
          <mxGeometry x="150" y="200" width="120" height="80" as="geometry" />
        </mxCell>
        <mxCell id="DdHKsm9eGKhI5jd7U26N-21" value="Añadir al carrito" style="ellipse;whiteSpace=wrap;html=1;direction=east;" vertex="1" parent="1">
          <mxGeometry x="150" y="70" width="120" height="80" as="geometry" />
        </mxCell>
        <mxCell id="DdHKsm9eGKhI5jd7U26N-22" value="Envió" style="ellipse;whiteSpace=wrap;html=1;direction=east;" vertex="1" parent="1">
          <mxGeometry x="150" y="460" width="120" height="80" as="geometry" />
        </mxCell>
        <mxCell id="DdHKsm9eGKhI5jd7U26N-23" value="Consultar Historial de compras y ventas" style="ellipse;whiteSpace=wrap;html=1;direction=east;" vertex="1" parent="1">
          <mxGeometry x="150" y="600" width="120" height="80" as="geometry" />
        </mxCell>
        <mxCell id="DdHKsm9eGKhI5jd7U26N-28" value="" style="endArrow=classic;html=1;entryX=0;entryY=0.5;entryDx=0;entryDy=0;" edge="1" parent="1" target="DdHKsm9eGKhI5jd7U26N-21">
          <mxGeometry width="50" height="50" relative="1" as="geometry">
            <mxPoint x="70" y="340" as="sourcePoint" />
            <mxPoint x="120" y="290" as="targetPoint" />
          </mxGeometry>
        </mxCell>
        <mxCell id="DdHKsm9eGKhI5jd7U26N-29" value="" style="endArrow=classic;html=1;entryX=0.008;entryY=0.625;entryDx=0;entryDy=0;entryPerimeter=0;" edge="1" parent="1" target="DdHKsm9eGKhI5jd7U26N-20">
          <mxGeometry width="50" height="50" relative="1" as="geometry">
            <mxPoint x="80" y="360" as="sourcePoint" />
            <mxPoint x="270" y="290" as="targetPoint" />
          </mxGeometry>
        </mxCell>
        <mxCell id="DdHKsm9eGKhI5jd7U26N-30" value="" style="endArrow=classic;html=1;entryX=0;entryY=0.5;entryDx=0;entryDy=0;" edge="1" parent="1" target="DdHKsm9eGKhI5jd7U26N-19">
          <mxGeometry width="50" height="50" relative="1" as="geometry">
            <mxPoint x="80" y="370" as="sourcePoint" />
            <mxPoint x="130" y="320" as="targetPoint" />
          </mxGeometry>
        </mxCell>
        <mxCell id="DdHKsm9eGKhI5jd7U26N-31" value="" style="endArrow=classic;html=1;entryX=0;entryY=0.5;entryDx=0;entryDy=0;" edge="1" parent="1" target="DdHKsm9eGKhI5jd7U26N-22">
          <mxGeometry width="50" height="50" relative="1" as="geometry">
            <mxPoint x="80" y="390" as="sourcePoint" />
            <mxPoint x="130" y="340" as="targetPoint" />
          </mxGeometry>
        </mxCell>
        <mxCell id="DdHKsm9eGKhI5jd7U26N-32" value="" style="endArrow=classic;html=1;entryX=0;entryY=0.5;entryDx=0;entryDy=0;" edge="1" parent="1" source="DdHKsm9eGKhI5jd7U26N-7" target="DdHKsm9eGKhI5jd7U26N-23">
          <mxGeometry width="50" height="50" relative="1" as="geometry">
            <mxPoint x="50" y="530" as="sourcePoint" />
            <mxPoint x="100" y="480" as="targetPoint" />
          </mxGeometry>
        </mxCell>
        <mxCell id="DdHKsm9eGKhI5jd7U26N-33" value="" style="endArrow=none;html=1;entryX=1;entryY=0.5;entryDx=0;entryDy=0;" edge="1" parent="1" target="DdHKsm9eGKhI5jd7U26N-19">
          <mxGeometry width="50" height="50" relative="1" as="geometry">
            <mxPoint x="150" y="370" as="sourcePoint" />
            <mxPoint x="200" y="320" as="targetPoint" />
          </mxGeometry>
        </mxCell>
        <mxCell id="DdHKsm9eGKhI5jd7U26N-35" value="Aplicar descuento de casero" style="ellipse;whiteSpace=wrap;html=1;" vertex="1" parent="1">
          <mxGeometry x="370" y="260" width="120" height="80" as="geometry" />
        </mxCell>
        <mxCell id="DdHKsm9eGKhI5jd7U26N-37" value="" style="endArrow=classic;html=1;entryX=0.958;entryY=0.288;entryDx=0;entryDy=0;entryPerimeter=0;" edge="1" parent="1" target="DdHKsm9eGKhI5jd7U26N-19">
          <mxGeometry width="50" height="50" relative="1" as="geometry">
            <mxPoint x="290" y="340" as="sourcePoint" />
            <mxPoint x="310" y="365" as="targetPoint" />
          </mxGeometry>
        </mxCell>
        <mxCell id="DdHKsm9eGKhI5jd7U26N-38" value="&amp;lt;&amp;lt;extend&amp;gt;&amp;gt;" style="text;html=1;strokeColor=none;fillColor=none;align=center;verticalAlign=middle;whiteSpace=wrap;rounded=0;rotation=-30;" vertex="1" parent="1">
          <mxGeometry x="290" y="300" width="40" height="20" as="geometry" />
        </mxCell>
        <mxCell id="DdHKsm9eGKhI5jd7U26N-39" value="Pagar" style="ellipse;whiteSpace=wrap;html=1;" vertex="1" parent="1">
          <mxGeometry x="370" y="360" width="120" height="80" as="geometry" />
        </mxCell>
        <mxCell id="DdHKsm9eGKhI5jd7U26N-42" value="" style="endArrow=classic;html=1;entryX=0;entryY=0.5;entryDx=0;entryDy=0;" edge="1" parent="1" target="DdHKsm9eGKhI5jd7U26N-39">
          <mxGeometry width="50" height="50" relative="1" as="geometry">
            <mxPoint x="350" y="400" as="sourcePoint" />
            <mxPoint x="510" y="475" as="targetPoint" />
          </mxGeometry>
        </mxCell>
        <mxCell id="DdHKsm9eGKhI5jd7U26N-43" value="" style="endArrow=none;dashed=1;html=1;" edge="1" parent="1">
          <mxGeometry width="50" height="50" relative="1" as="geometry">
            <mxPoint x="260" y="390" as="sourcePoint" />
            <mxPoint x="350" y="400" as="targetPoint" />
          </mxGeometry>
        </mxCell>
        <mxCell id="DdHKsm9eGKhI5jd7U26N-44" value="" style="endArrow=none;dashed=1;html=1;entryX=0;entryY=0.5;entryDx=0;entryDy=0;" edge="1" parent="1" target="DdHKsm9eGKhI5jd7U26N-35">
          <mxGeometry width="50" height="50" relative="1" as="geometry">
            <mxPoint x="290" y="340" as="sourcePoint" />
            <mxPoint x="550" y="370" as="targetPoint" />
          </mxGeometry>
        </mxCell>
        <mxCell id="DdHKsm9eGKhI5jd7U26N-45" value="&amp;lt;&amp;lt;include&amp;gt;&amp;gt;" style="text;html=1;strokeColor=none;fillColor=none;align=center;verticalAlign=middle;whiteSpace=wrap;rounded=0;rotation=0;" vertex="1" parent="1">
          <mxGeometry x="300" y="370" width="40" height="20" as="geometry" />
        </mxCell>
        <mxCell id="DdHKsm9eGKhI5jd7U26N-46" value="Pago tarjeta de credito" style="ellipse;whiteSpace=wrap;html=1;" vertex="1" parent="1">
          <mxGeometry x="670" y="280" width="120" height="80" as="geometry" />
        </mxCell>
        <mxCell id="DdHKsm9eGKhI5jd7U26N-47" value="pago por paypal" style="ellipse;whiteSpace=wrap;html=1;" vertex="1" parent="1">
          <mxGeometry x="670" y="390" width="120" height="80" as="geometry" />
        </mxCell>
        <mxCell id="DdHKsm9eGKhI5jd7U26N-48" value="pago acorde con el vendedor" style="ellipse;whiteSpace=wrap;html=1;" vertex="1" parent="1">
          <mxGeometry x="670" y="500" width="120" height="80" as="geometry" />
        </mxCell>
        <mxCell id="DdHKsm9eGKhI5jd7U26N-51" value="Empresa de transporte" style="shape=umlActor;verticalLabelPosition=bottom;verticalAlign=top;html=1;outlineConnect=0;" vertex="1" parent="1">
          <mxGeometry x="450" y="530" width="30" height="60" as="geometry" />
        </mxCell>
        <mxCell id="DdHKsm9eGKhI5jd7U26N-53" value="" style="endArrow=classic;html=1;exitX=0.792;exitY=0.938;exitDx=0;exitDy=0;exitPerimeter=0;entryX=0.25;entryY=0.1;entryDx=0;entryDy=0;entryPerimeter=0;" edge="1" parent="1" source="DdHKsm9eGKhI5jd7U26N-19" target="DdHKsm9eGKhI5jd7U26N-51">
          <mxGeometry width="50" height="50" relative="1" as="geometry">
            <mxPoint x="360" y="525" as="sourcePoint" />
            <mxPoint x="410" y="475" as="targetPoint" />
          </mxGeometry>
        </mxCell>
        <mxCell id="DdHKsm9eGKhI5jd7U26N-54" value="" style="endArrow=classic;html=1;exitX=1;exitY=0.5;exitDx=0;exitDy=0;entryX=0;entryY=0.3333333333333333;entryDx=0;entryDy=0;entryPerimeter=0;" edge="1" parent="1" source="DdHKsm9eGKhI5jd7U26N-22" target="DdHKsm9eGKhI5jd7U26N-51">
          <mxGeometry width="50" height="50" relative="1" as="geometry">
            <mxPoint x="300" y="580" as="sourcePoint" />
            <mxPoint x="350" y="530" as="targetPoint" />
          </mxGeometry>
        </mxCell>
        <mxCell id="DdHKsm9eGKhI5jd7U26N-55" value="" style="endArrow=none;dashed=1;html=1;entryX=0;entryY=0.5;entryDx=0;entryDy=0;" edge="1" parent="1" target="DdHKsm9eGKhI5jd7U26N-48">
          <mxGeometry width="50" height="50" relative="1" as="geometry">
            <mxPoint x="500" y="440" as="sourcePoint" />
            <mxPoint x="600" y="475" as="targetPoint" />
          </mxGeometry>
        </mxCell>
        <mxCell id="DdHKsm9eGKhI5jd7U26N-56" value="" style="endArrow=none;dashed=1;html=1;entryX=0;entryY=0.5;entryDx=0;entryDy=0;" edge="1" parent="1" target="DdHKsm9eGKhI5jd7U26N-47">
          <mxGeometry width="50" height="50" relative="1" as="geometry">
            <mxPoint x="510" y="410" as="sourcePoint" />
            <mxPoint x="580" y="400" as="targetPoint" />
          </mxGeometry>
        </mxCell>
        <mxCell id="DdHKsm9eGKhI5jd7U26N-57" value="" style="endArrow=none;dashed=1;html=1;entryX=0;entryY=0.5;entryDx=0;entryDy=0;" edge="1" parent="1" target="DdHKsm9eGKhI5jd7U26N-46">
          <mxGeometry width="50" height="50" relative="1" as="geometry">
            <mxPoint x="500" y="360" as="sourcePoint" />
            <mxPoint x="650" y="320" as="targetPoint" />
          </mxGeometry>
        </mxCell>
        <mxCell id="DdHKsm9eGKhI5jd7U26N-58" value="" style="endArrow=classic;html=1;entryX=1;entryY=0.5;entryDx=0;entryDy=0;" edge="1" parent="1" target="DdHKsm9eGKhI5jd7U26N-39">
          <mxGeometry width="50" height="50" relative="1" as="geometry">
            <mxPoint x="510" y="410" as="sourcePoint" />
            <mxPoint x="585" y="360" as="targetPoint" />
          </mxGeometry>
        </mxCell>
        <mxCell id="DdHKsm9eGKhI5jd7U26N-59" value="" style="endArrow=classic;html=1;entryX=1;entryY=1;entryDx=0;entryDy=0;" edge="1" parent="1" target="DdHKsm9eGKhI5jd7U26N-39">
          <mxGeometry width="50" height="50" relative="1" as="geometry">
            <mxPoint x="500" y="440" as="sourcePoint" />
            <mxPoint x="640" y="360" as="targetPoint" />
          </mxGeometry>
        </mxCell>
        <mxCell id="DdHKsm9eGKhI5jd7U26N-60" value="" style="endArrow=classic;html=1;entryX=1;entryY=0;entryDx=0;entryDy=0;" edge="1" parent="1" target="DdHKsm9eGKhI5jd7U26N-39">
          <mxGeometry width="50" height="50" relative="1" as="geometry">
            <mxPoint x="500" y="360" as="sourcePoint" />
            <mxPoint x="635" y="350" as="targetPoint" />
          </mxGeometry>
        </mxCell>
        <mxCell id="DdHKsm9eGKhI5jd7U26N-61" value="&amp;lt;&amp;lt;extend&amp;gt;&amp;gt;" style="text;html=1;strokeColor=none;fillColor=none;align=center;verticalAlign=middle;whiteSpace=wrap;rounded=0;rotation=-15;" vertex="1" parent="1">
          <mxGeometry x="564.5" y="310" width="40" height="20" as="geometry" />
        </mxCell>
        <mxCell id="DdHKsm9eGKhI5jd7U26N-62" value="&amp;lt;&amp;lt;extend&amp;gt;&amp;gt;" style="text;html=1;strokeColor=none;fillColor=none;align=center;verticalAlign=middle;whiteSpace=wrap;rounded=0;rotation=0;" vertex="1" parent="1">
          <mxGeometry x="565" y="390" width="40" height="20" as="geometry" />
        </mxCell>
        <mxCell id="DdHKsm9eGKhI5jd7U26N-63" value="&amp;lt;&amp;lt;extend&amp;gt;&amp;gt;" style="text;html=1;strokeColor=none;fillColor=none;align=center;verticalAlign=middle;whiteSpace=wrap;rounded=0;rotation=30;" vertex="1" parent="1">
          <mxGeometry x="570" y="460" width="40" height="20" as="geometry" />
        </mxCell>
        <mxCell id="DdHKsm9eGKhI5jd7U26N-170" value="&lt;span style=&quot;font-size: 14px&quot;&gt;VENDEDOR&lt;/span&gt;" style="shape=umlActor;verticalLabelPosition=bottom;verticalAlign=top;html=1;outlineConnect=0;" vertex="1" parent="1">
          <mxGeometry x="900" y="345" width="30" height="60" as="geometry" />
        </mxCell>
        <mxCell id="DdHKsm9eGKhI5jd7U26N-171" value="Confirmar producto vendido&lt;br&gt;extends&lt;br&gt;Descuento a bajar" style="ellipse;whiteSpace=wrap;html=1;direction=east;" vertex="1" parent="1">
          <mxGeometry x="1000" y="335" width="120" height="80" as="geometry" />
        </mxCell>
        <mxCell id="DdHKsm9eGKhI5jd7U26N-172" value="Eliminar Producto" style="ellipse;whiteSpace=wrap;html=1;direction=east;" vertex="1" parent="1">
          <mxGeometry x="1000" y="205" width="120" height="80" as="geometry" />
        </mxCell>
        <mxCell id="DdHKsm9eGKhI5jd7U26N-173" value="Registrar Producto" style="ellipse;whiteSpace=wrap;html=1;direction=east;" vertex="1" parent="1">
          <mxGeometry x="1000" y="75" width="120" height="80" as="geometry" />
        </mxCell>
        <mxCell id="DdHKsm9eGKhI5jd7U26N-174" value="Envió" style="ellipse;whiteSpace=wrap;html=1;direction=east;" vertex="1" parent="1">
          <mxGeometry x="1000" y="465" width="120" height="80" as="geometry" />
        </mxCell>
        <mxCell id="DdHKsm9eGKhI5jd7U26N-175" value="Consultar Historial de compras y ventas" style="ellipse;whiteSpace=wrap;html=1;direction=east;" vertex="1" parent="1">
          <mxGeometry x="1000" y="605" width="120" height="80" as="geometry" />
        </mxCell>
        <mxCell id="DdHKsm9eGKhI5jd7U26N-176" value="" style="endArrow=classic;html=1;entryX=0;entryY=0.5;entryDx=0;entryDy=0;" edge="1" parent="1" target="DdHKsm9eGKhI5jd7U26N-173">
          <mxGeometry width="50" height="50" relative="1" as="geometry">
            <mxPoint x="920" y="345" as="sourcePoint" />
            <mxPoint x="970" y="295" as="targetPoint" />
          </mxGeometry>
        </mxCell>
        <mxCell id="DdHKsm9eGKhI5jd7U26N-177" value="" style="endArrow=classic;html=1;entryX=0.008;entryY=0.625;entryDx=0;entryDy=0;entryPerimeter=0;" edge="1" parent="1" target="DdHKsm9eGKhI5jd7U26N-172">
          <mxGeometry width="50" height="50" relative="1" as="geometry">
            <mxPoint x="930" y="365" as="sourcePoint" />
            <mxPoint x="1120" y="295" as="targetPoint" />
          </mxGeometry>
        </mxCell>
        <mxCell id="DdHKsm9eGKhI5jd7U26N-178" value="" style="endArrow=classic;html=1;entryX=0;entryY=0.5;entryDx=0;entryDy=0;" edge="1" parent="1" target="DdHKsm9eGKhI5jd7U26N-171">
          <mxGeometry width="50" height="50" relative="1" as="geometry">
            <mxPoint x="930" y="375" as="sourcePoint" />
            <mxPoint x="980" y="325" as="targetPoint" />
          </mxGeometry>
        </mxCell>
        <mxCell id="DdHKsm9eGKhI5jd7U26N-179" value="" style="endArrow=classic;html=1;entryX=0;entryY=0.5;entryDx=0;entryDy=0;" edge="1" parent="1" target="DdHKsm9eGKhI5jd7U26N-174">
          <mxGeometry width="50" height="50" relative="1" as="geometry">
            <mxPoint x="930" y="395" as="sourcePoint" />
            <mxPoint x="980" y="345" as="targetPoint" />
          </mxGeometry>
        </mxCell>
        <mxCell id="DdHKsm9eGKhI5jd7U26N-180" value="" style="endArrow=classic;html=1;entryX=0;entryY=0.5;entryDx=0;entryDy=0;" edge="1" parent="1" source="DdHKsm9eGKhI5jd7U26N-170" target="DdHKsm9eGKhI5jd7U26N-175">
          <mxGeometry width="50" height="50" relative="1" as="geometry">
            <mxPoint x="900" y="535" as="sourcePoint" />
            <mxPoint x="950" y="485" as="targetPoint" />
          </mxGeometry>
        </mxCell>
        <mxCell id="DdHKsm9eGKhI5jd7U26N-181" value="" style="endArrow=none;html=1;entryX=1;entryY=0.5;entryDx=0;entryDy=0;" edge="1" parent="1" target="DdHKsm9eGKhI5jd7U26N-171">
          <mxGeometry width="50" height="50" relative="1" as="geometry">
            <mxPoint x="1000" y="375" as="sourcePoint" />
            <mxPoint x="1050" y="325" as="targetPoint" />
          </mxGeometry>
        </mxCell>
        <mxCell id="DdHKsm9eGKhI5jd7U26N-182" value="Aplicar descuento de casero" style="ellipse;whiteSpace=wrap;html=1;" vertex="1" parent="1">
          <mxGeometry x="1220" y="265" width="120" height="80" as="geometry" />
        </mxCell>
        <mxCell id="DdHKsm9eGKhI5jd7U26N-183" value="" style="endArrow=classic;html=1;entryX=0.958;entryY=0.288;entryDx=0;entryDy=0;entryPerimeter=0;" edge="1" parent="1" target="DdHKsm9eGKhI5jd7U26N-171">
          <mxGeometry width="50" height="50" relative="1" as="geometry">
            <mxPoint x="1140" y="345" as="sourcePoint" />
            <mxPoint x="1160" y="370" as="targetPoint" />
          </mxGeometry>
        </mxCell>
        <mxCell id="DdHKsm9eGKhI5jd7U26N-184" value="&amp;lt;&amp;lt;extend&amp;gt;&amp;gt;" style="text;html=1;strokeColor=none;fillColor=none;align=center;verticalAlign=middle;whiteSpace=wrap;rounded=0;rotation=-30;" vertex="1" parent="1">
          <mxGeometry x="1140" y="305" width="40" height="20" as="geometry" />
        </mxCell>
        <mxCell id="DdHKsm9eGKhI5jd7U26N-185" value="Pago del producto" style="ellipse;whiteSpace=wrap;html=1;" vertex="1" parent="1">
          <mxGeometry x="1220" y="365" width="120" height="80" as="geometry" />
        </mxCell>
        <mxCell id="DdHKsm9eGKhI5jd7U26N-186" value="" style="endArrow=classic;html=1;entryX=0;entryY=0.5;entryDx=0;entryDy=0;" edge="1" parent="1" target="DdHKsm9eGKhI5jd7U26N-185">
          <mxGeometry width="50" height="50" relative="1" as="geometry">
            <mxPoint x="1200" y="405" as="sourcePoint" />
            <mxPoint x="1360" y="480" as="targetPoint" />
          </mxGeometry>
        </mxCell>
        <mxCell id="DdHKsm9eGKhI5jd7U26N-187" value="" style="endArrow=none;dashed=1;html=1;" edge="1" parent="1">
          <mxGeometry width="50" height="50" relative="1" as="geometry">
            <mxPoint x="1110" y="395" as="sourcePoint" />
            <mxPoint x="1200" y="405" as="targetPoint" />
          </mxGeometry>
        </mxCell>
        <mxCell id="DdHKsm9eGKhI5jd7U26N-188" value="" style="endArrow=none;dashed=1;html=1;entryX=0;entryY=0.5;entryDx=0;entryDy=0;" edge="1" parent="1" target="DdHKsm9eGKhI5jd7U26N-182">
          <mxGeometry width="50" height="50" relative="1" as="geometry">
            <mxPoint x="1140" y="345" as="sourcePoint" />
            <mxPoint x="1400" y="375" as="targetPoint" />
          </mxGeometry>
        </mxCell>
        <mxCell id="DdHKsm9eGKhI5jd7U26N-189" value="&amp;lt;&amp;lt;include&amp;gt;&amp;gt;" style="text;html=1;strokeColor=none;fillColor=none;align=center;verticalAlign=middle;whiteSpace=wrap;rounded=0;rotation=0;" vertex="1" parent="1">
          <mxGeometry x="1150" y="375" width="40" height="20" as="geometry" />
        </mxCell>
        <mxCell id="DdHKsm9eGKhI5jd7U26N-190" value="Pago directo a cuenta bancaria" style="ellipse;whiteSpace=wrap;html=1;" vertex="1" parent="1">
          <mxGeometry x="1520" y="285" width="120" height="80" as="geometry" />
        </mxCell>
        <mxCell id="DdHKsm9eGKhI5jd7U26N-191" value="pago directo a PayPal personal" style="ellipse;whiteSpace=wrap;html=1;" vertex="1" parent="1">
          <mxGeometry x="1520" y="395" width="120" height="80" as="geometry" />
        </mxCell>
        <mxCell id="DdHKsm9eGKhI5jd7U26N-192" value="pago acorde con el Comprador" style="ellipse;whiteSpace=wrap;html=1;" vertex="1" parent="1">
          <mxGeometry x="1520" y="505" width="120" height="80" as="geometry" />
        </mxCell>
        <mxCell id="DdHKsm9eGKhI5jd7U26N-193" value="Empresa de transporte" style="shape=umlActor;verticalLabelPosition=bottom;verticalAlign=top;html=1;outlineConnect=0;" vertex="1" parent="1">
          <mxGeometry x="1300" y="535" width="30" height="60" as="geometry" />
        </mxCell>
        <mxCell id="DdHKsm9eGKhI5jd7U26N-194" value="" style="endArrow=classic;html=1;exitX=0.792;exitY=0.938;exitDx=0;exitDy=0;exitPerimeter=0;entryX=0.25;entryY=0.1;entryDx=0;entryDy=0;entryPerimeter=0;" edge="1" parent="1" source="DdHKsm9eGKhI5jd7U26N-171" target="DdHKsm9eGKhI5jd7U26N-193">
          <mxGeometry width="50" height="50" relative="1" as="geometry">
            <mxPoint x="1210" y="530" as="sourcePoint" />
            <mxPoint x="1260" y="480" as="targetPoint" />
          </mxGeometry>
        </mxCell>
        <mxCell id="DdHKsm9eGKhI5jd7U26N-195" value="" style="endArrow=classic;html=1;exitX=1;exitY=0.5;exitDx=0;exitDy=0;entryX=0;entryY=0.3333333333333333;entryDx=0;entryDy=0;entryPerimeter=0;" edge="1" parent="1" source="DdHKsm9eGKhI5jd7U26N-174" target="DdHKsm9eGKhI5jd7U26N-193">
          <mxGeometry width="50" height="50" relative="1" as="geometry">
            <mxPoint x="1150" y="585" as="sourcePoint" />
            <mxPoint x="1200" y="535" as="targetPoint" />
          </mxGeometry>
        </mxCell>
        <mxCell id="DdHKsm9eGKhI5jd7U26N-196" value="" style="endArrow=none;dashed=1;html=1;entryX=0;entryY=0.5;entryDx=0;entryDy=0;" edge="1" parent="1" target="DdHKsm9eGKhI5jd7U26N-192">
          <mxGeometry width="50" height="50" relative="1" as="geometry">
            <mxPoint x="1350" y="445" as="sourcePoint" />
            <mxPoint x="1450" y="480" as="targetPoint" />
          </mxGeometry>
        </mxCell>
        <mxCell id="DdHKsm9eGKhI5jd7U26N-197" value="" style="endArrow=none;dashed=1;html=1;entryX=0;entryY=0.5;entryDx=0;entryDy=0;" edge="1" parent="1" target="DdHKsm9eGKhI5jd7U26N-191">
          <mxGeometry width="50" height="50" relative="1" as="geometry">
            <mxPoint x="1360" y="415" as="sourcePoint" />
            <mxPoint x="1430" y="405" as="targetPoint" />
          </mxGeometry>
        </mxCell>
        <mxCell id="DdHKsm9eGKhI5jd7U26N-198" value="" style="endArrow=none;dashed=1;html=1;entryX=0;entryY=0.5;entryDx=0;entryDy=0;" edge="1" parent="1" target="DdHKsm9eGKhI5jd7U26N-190">
          <mxGeometry width="50" height="50" relative="1" as="geometry">
            <mxPoint x="1350" y="365" as="sourcePoint" />
            <mxPoint x="1500" y="325" as="targetPoint" />
          </mxGeometry>
        </mxCell>
        <mxCell id="DdHKsm9eGKhI5jd7U26N-199" value="" style="endArrow=classic;html=1;entryX=1;entryY=0.5;entryDx=0;entryDy=0;" edge="1" parent="1" target="DdHKsm9eGKhI5jd7U26N-185">
          <mxGeometry width="50" height="50" relative="1" as="geometry">
            <mxPoint x="1360" y="415" as="sourcePoint" />
            <mxPoint x="1435" y="365" as="targetPoint" />
          </mxGeometry>
        </mxCell>
        <mxCell id="DdHKsm9eGKhI5jd7U26N-200" value="" style="endArrow=classic;html=1;entryX=1;entryY=1;entryDx=0;entryDy=0;" edge="1" parent="1" target="DdHKsm9eGKhI5jd7U26N-185">
          <mxGeometry width="50" height="50" relative="1" as="geometry">
            <mxPoint x="1350" y="445" as="sourcePoint" />
            <mxPoint x="1490" y="365" as="targetPoint" />
          </mxGeometry>
        </mxCell>
        <mxCell id="DdHKsm9eGKhI5jd7U26N-201" value="" style="endArrow=classic;html=1;entryX=1;entryY=0;entryDx=0;entryDy=0;" edge="1" parent="1" target="DdHKsm9eGKhI5jd7U26N-185">
          <mxGeometry width="50" height="50" relative="1" as="geometry">
            <mxPoint x="1350" y="365" as="sourcePoint" />
            <mxPoint x="1485" y="355" as="targetPoint" />
          </mxGeometry>
        </mxCell>
        <mxCell id="DdHKsm9eGKhI5jd7U26N-202" value="&amp;lt;&amp;lt;extend&amp;gt;&amp;gt;" style="text;html=1;strokeColor=none;fillColor=none;align=center;verticalAlign=middle;whiteSpace=wrap;rounded=0;rotation=-15;" vertex="1" parent="1">
          <mxGeometry x="1414.5" y="315" width="40" height="20" as="geometry" />
        </mxCell>
        <mxCell id="DdHKsm9eGKhI5jd7U26N-203" value="&amp;lt;&amp;lt;extend&amp;gt;&amp;gt;" style="text;html=1;strokeColor=none;fillColor=none;align=center;verticalAlign=middle;whiteSpace=wrap;rounded=0;rotation=0;" vertex="1" parent="1">
          <mxGeometry x="1415" y="395" width="40" height="20" as="geometry" />
        </mxCell>
        <mxCell id="DdHKsm9eGKhI5jd7U26N-204" value="&amp;lt;&amp;lt;extend&amp;gt;&amp;gt;" style="text;html=1;strokeColor=none;fillColor=none;align=center;verticalAlign=middle;whiteSpace=wrap;rounded=0;rotation=30;" vertex="1" parent="1">
          <mxGeometry x="1420" y="465" width="40" height="20" as="geometry" />
        </mxCell>
      </root>
    </mxGraphModel>
  </diagram>
</mxfile>
